<svg width="24" height="24" viewBox="0 0 24 24" fill="none" xmlns="http://www.w3.org/2000/svg">
<path d="M14.9156 8.80781C12.9047 9.59062 11.0016 10.4203 9.4828 11.3297C7.8703 12.3047 6.80155 13.6125 6.80155 14.8594C6.80155 17.5406 9.74061 19.3781 14.1 19.3781C15.6797 19.3781 17.1187 19.1859 18.1734 18.9141L18.2859 19.2C17.4703 19.8094 16.5937 20.4281 15.6047 20.9906C15.0937 21.2766 14.1516 21.4547 12.8719 21.4547C8.99061 21.4547 5.71405 19.6172 5.71405 15.4969C5.71405 13.4062 6.83436 11.6812 8.36718 10.3359C6.64218 9.10781 5.97186 8.24531 5.97186 6.85312C5.97186 6.16406 6.21093 5.22187 6.68905 4.41093C7.42499 3.19687 8.51249 2.54062 9.66093 2.54062C11.0672 2.54062 12.1219 3.24374 13.0969 4.55156L12.8391 4.88906C12.0094 4.50468 11.2078 4.36406 10.3641 4.36406C8.59218 4.36406 7.17186 5.25937 7.17186 5.91093C7.17186 6.62812 7.58905 7.20468 8.55936 7.94062C9.13593 8.35781 9.9328 8.80312 10.2516 8.80312C10.5703 8.80312 10.8562 8.64374 11.1281 8.51718C12.5672 7.83281 14.0016 7.20937 15.4406 6.66562L15.5203 6.71249L14.9156 8.80781Z" fill="#333333"/>
</svg>
