<svg width="24" height="24" viewBox="0 0 24 24" fill="none" xmlns="http://www.w3.org/2000/svg">
<path d="M3.00003 12.9877L18.586 12.9877L13.293 18.2807C13.1975 18.373 13.1213 18.4833 13.0689 18.6053C13.0165 18.7273 12.9889 18.8585 12.9878 18.9913C12.9866 19.1241 13.0119 19.2558 13.0622 19.3787C13.1125 19.5016 13.1867 19.6132 13.2806 19.7071C13.3745 19.801 13.4862 19.8753 13.6091 19.9255C13.732 19.9758 13.8637 20.0011 13.9964 20C14.1292 19.9988 14.2604 19.9712 14.3824 19.9188C14.5044 19.8664 14.6148 19.7902 14.707 19.6947L21.707 12.6947C21.8945 12.5072 21.9998 12.2529 21.9998 11.9877C21.9998 11.7225 21.8945 11.4682 21.707 11.2807L14.707 4.28071C14.5184 4.09855 14.2658 3.99776 14.0036 4.00004C13.7414 4.00232 13.4906 4.10748 13.3052 4.29289C13.1198 4.4783 13.0146 4.72911 13.0124 4.99131C13.0101 5.25351 13.1109 5.50611 13.293 5.69471L18.586 10.9877L3.00003 10.9877C2.73481 10.9877 2.48046 11.0931 2.29292 11.2806C2.10539 11.4681 2.00003 11.7225 2.00003 11.9877C2.00003 12.2529 2.10539 12.5073 2.29292 12.6948C2.48046 12.8824 2.73481 12.9877 3.00003 12.9877Z" fill="#545454"/>
</svg>
