<svg width="24" height="24" viewBox="0 0 24 24" fill="none" xmlns="http://www.w3.org/2000/svg">
<rect width="24" height="24" rx="12" fill="white" fill-opacity="0.16"/>
<rect x="0.25" y="0.25" width="23.5" height="23.5" rx="11.75" stroke="white" stroke-opacity="0.5" stroke-width="0.5"/>
<path d="M6.73321 13.7347L6.73776 13.7391L11.4262 18.2899C11.4635 18.3258 11.5046 18.3577 11.549 18.385L11.684 18.4564L11.776 18.4862H11.8435C11.947 18.5046 12.053 18.5046 12.1565 18.4862H12.2915L12.3958 18.4326C12.454 18.402 12.5076 18.364 12.5554 18.3196L17.2623 13.7391C17.5775 13.436 17.5795 12.9425 17.2668 12.637L17.2623 12.6326C16.9445 12.3388 16.4447 12.3388 16.127 12.6326L13.3225 15.3452C13.2015 15.4602 13.0072 15.4584 12.8886 15.3411C12.8334 15.2865 12.802 15.2134 12.8009 15.137L12.8009 6.27935C12.8009 5.84895 12.441 5.50003 11.997 5.5C11.553 5.49997 11.1931 5.84884 11.193 6.27924L11.193 15.137C11.1906 15.3013 11.0513 15.4326 10.8819 15.4303C10.8031 15.4292 10.7277 15.3987 10.6714 15.3452L7.87917 12.6326C7.56064 12.335 7.05626 12.335 6.73773 12.6326C6.42254 12.9357 6.4205 13.4291 6.73321 13.7347Z" fill="white"/>
</svg>
