<svg width="28" height="28" viewBox="0 0 28 28" fill="none" xmlns="http://www.w3.org/2000/svg">
<rect width="28" height="28" rx="14" fill="white"/>
<path fill-rule="evenodd" clip-rule="evenodd" d="M10.2157 20.8407C10.4071 21.0321 10.6667 21.1396 10.9374 21.1396C11.2081 21.1396 11.4677 21.0321 11.6592 20.8407L17.7845 14.7154C17.9759 14.524 18.0834 14.2644 18.0834 13.9937C18.0834 13.7229 17.9759 13.4633 17.7845 13.2719L11.6592 7.14656C11.4666 6.9606 11.2088 6.85769 10.9411 6.86002C10.6734 6.86235 10.4174 6.96971 10.2281 7.15899C10.0388 7.34828 9.93144 7.60433 9.92911 7.872C9.92679 8.13967 10.0297 8.39755 10.2157 8.59009L15.6192 13.9937L10.2157 19.3972C10.0243 19.5887 9.91675 19.8483 9.91675 20.119C9.91675 20.3897 10.0243 20.6493 10.2157 20.8407Z" fill="#333333"/>
</svg>
