<svg width="24" height="24" viewBox="0 0 24 24" fill="none" xmlns="http://www.w3.org/2000/svg">
<path fill-rule="evenodd" clip-rule="evenodd" d="M7.10868 20.8772C7.3431 21.1115 7.661 21.2432 7.99248 21.2432C8.32395 21.2432 8.64185 21.1115 8.87627 20.8772L16.3767 13.3768C16.611 13.1423 16.7427 12.8244 16.7427 12.493C16.7427 12.1615 16.611 11.8436 16.3767 11.6092L8.87627 4.10877C8.64051 3.88106 8.32474 3.75506 7.99697 3.75791C7.66921 3.76075 7.35568 3.89222 7.12391 4.12399C6.89213 4.35577 6.76067 4.6693 6.75782 4.99706C6.75497 5.32483 6.88097 5.6406 7.10868 5.87636L13.7253 12.493L7.10868 19.1096C6.87433 19.344 6.74268 19.6619 6.74268 19.9934C6.74268 20.3248 6.87433 20.6427 7.10868 20.8772Z" fill="#545454"/>
</svg>
