<svg width="24" height="24" viewBox="0 0 24 24" fill="none" xmlns="http://www.w3.org/2000/svg">
<g clip-path="url(#clip0_510_845)">
<path d="M7.67459 10.2353C7.7414 10.6323 7.88811 11.0116 8.10583 11.3503C8.32356 11.6889 8.60776 11.9798 8.94122 12.2053C9.03701 12.2699 9.13913 12.3419 9.2464 12.4175C9.9474 12.9119 10.9092 13.5887 11.9997 13.5887C13.0902 13.5887 14.0521 12.9119 14.7543 12.4175C14.8619 12.3419 14.9637 12.2699 15.0594 12.2053C15.3929 11.9798 15.6772 11.6888 15.8949 11.3501C16.1126 11.0114 16.2593 10.632 16.3261 10.2349L16.4603 9.42866C16.7687 9.35194 17.0426 9.1743 17.2385 8.92399C17.4344 8.67369 17.5409 8.36508 17.5412 8.04724V5.66162C17.5412 4.19192 16.9574 2.78242 15.9182 1.74319C14.8789 0.703953 13.4694 0.120117 11.9997 0.120117C10.53 0.120117 9.12054 0.703953 8.0813 1.74319C7.04207 2.78242 6.45823 4.19192 6.45823 5.66162V8.04724C6.45861 8.36524 6.56535 8.67397 6.76145 8.9243C6.95755 9.17462 7.23175 9.35217 7.54041 9.42866L7.67459 10.2353ZM11.9997 0.922448C13.2576 0.922445 14.4642 1.42141 15.3546 2.30987C16.2451 3.19833 16.7468 4.40373 16.7496 5.66162V6.77665C16.6641 6.73258 16.5743 6.69743 16.4816 6.67176C16.4394 6.33853 16.2935 6.027 16.0646 5.78118C15.8356 5.53536 15.5353 5.36768 15.2059 5.30182C14.2533 5.18262 13.3349 4.871 12.5064 4.38589C12.3548 4.29049 12.1794 4.23988 12.0003 4.23988C11.8213 4.23988 11.6458 4.29049 11.4943 4.38589C10.6655 4.87125 9.74662 5.18288 8.79358 5.30182C8.46405 5.36753 8.16351 5.53515 7.93444 5.78098C7.70537 6.02681 7.55936 6.33842 7.51706 6.67176C7.42464 6.69748 7.33511 6.73263 7.24988 6.77665V5.66162C7.25271 4.40373 7.75439 3.19833 8.64485 2.30987C9.53532 1.42141 10.7418 0.922445 11.9997 0.922448ZM7.24988 8.04724C7.2504 7.87962 7.31736 7.71904 7.43607 7.6007C7.55478 7.48236 7.71557 7.41591 7.88319 7.41591C7.98817 7.41591 8.08885 7.3742 8.16308 7.29997C8.23731 7.22574 8.27901 7.12506 8.27901 7.02008C8.26015 6.81602 8.31221 6.6117 8.42642 6.44154C8.54063 6.27139 8.71 6.1458 8.90599 6.08594C9.96827 5.95094 10.9919 5.60077 11.9142 5.05681C11.9397 5.04019 11.9693 5.03113 11.9997 5.03068C12.0303 5.03092 12.0601 5.03999 12.0856 5.05681C13.008 5.60077 14.0316 5.95094 15.0939 6.08594C15.2899 6.1458 15.4592 6.27139 15.5735 6.44154C15.6877 6.6117 15.7397 6.81602 15.7209 7.02008C15.7209 7.12506 15.7626 7.22574 15.8368 7.29997C15.911 7.3742 16.0117 7.41591 16.1167 7.41591C16.2038 7.409 16.2914 7.4202 16.374 7.4488C16.4565 7.47739 16.5323 7.52277 16.5965 7.58207C16.6607 7.64137 16.7119 7.71331 16.7469 7.79336C16.7819 7.87342 16.8 7.95986 16.8 8.04724C16.8 8.13463 16.7819 8.22106 16.7469 8.30112C16.7119 8.38118 16.6607 8.45312 16.5965 8.51241C16.5323 8.57171 16.4565 8.61709 16.374 8.64569C16.2914 8.67428 16.2038 8.68548 16.1167 8.67858C16.023 8.67862 15.9323 8.7119 15.8609 8.77249C15.7894 8.83308 15.7418 8.91706 15.7264 9.00949L15.5443 10.1047C15.4957 10.3957 15.3885 10.6737 15.2292 10.922C15.0699 11.1702 14.8619 11.3836 14.6177 11.5491C14.518 11.6164 14.4115 11.6908 14.301 11.7699C13.6487 12.2279 12.8397 12.7971 11.9997 12.7971C11.1598 12.7971 10.3507 12.2279 9.70041 11.7699C9.58839 11.6908 9.48192 11.6164 9.38375 11.5491C9.13937 11.3838 8.9311 11.1707 8.77154 10.9225C8.61199 10.6744 8.50449 10.3964 8.45555 10.1055L8.27347 9.00988C8.25777 8.91775 8.20997 8.83414 8.13854 8.77386C8.06711 8.71359 7.97665 8.68054 7.88319 8.68056C7.71523 8.68056 7.55414 8.61383 7.43537 8.49506C7.3166 8.37629 7.24988 8.21521 7.24988 8.04724ZM4.52702 4.43695C4.30433 4.21433 4.00235 4.08928 3.68748 4.08928C3.37261 4.08928 3.07062 4.21433 2.84794 4.43695L0.47301 6.81188C0.250394 7.03456 0.125336 7.33655 0.125336 7.65142C0.125336 7.96629 0.250394 8.26828 0.47301 8.49096L2.84794 10.8659C2.95748 10.9793 3.08851 11.0698 3.23339 11.132C3.37826 11.1942 3.53408 11.227 3.69175 11.2284C3.84942 11.2297 4.00579 11.1997 4.15172 11.14C4.29766 11.0803 4.43024 10.9921 4.54174 10.8806C4.65323 10.7691 4.7414 10.6365 4.80111 10.4906C4.86082 10.3447 4.89086 10.1883 4.88949 10.0306C4.88812 9.87295 4.85536 9.71713 4.79313 9.57226C4.7309 9.42738 4.64043 9.29635 4.52702 9.18681L2.99162 7.65142L4.52702 6.11603C4.74963 5.89334 4.87469 5.59136 4.87469 5.27649C4.87469 4.96162 4.74963 4.65963 4.52702 4.43695ZM3.96732 5.55633L2.15209 7.37157C2.07788 7.4458 2.03619 7.54646 2.03619 7.65142C2.03619 7.75638 2.07788 7.85704 2.15209 7.93127L3.96732 9.7465C4.04153 9.82073 4.08322 9.92139 4.08322 10.0264C4.08322 10.1313 4.04153 10.232 3.96732 10.3062C3.89188 10.3781 3.79168 10.4182 3.68748 10.4182C3.58328 10.4182 3.48308 10.3781 3.40763 10.3062L1.0327 7.93127C0.958497 7.85704 0.91681 7.75638 0.91681 7.65142C0.91681 7.54646 0.958497 7.4458 1.0327 7.37157L3.40763 4.99664C3.48229 4.92454 3.58227 4.88464 3.68605 4.88555C3.78984 4.88645 3.88911 4.92808 3.9625 5.00146C4.03589 5.07485 4.07752 5.17413 4.07842 5.27791C4.07932 5.3817 4.03943 5.48168 3.96732 5.55633ZM19.4725 10.8659C19.6951 11.0885 19.9971 11.2136 20.312 11.2136C20.6269 11.2136 20.9289 11.0885 21.1515 10.8659L23.5265 8.49096C23.7491 8.26828 23.8741 7.96629 23.8741 7.65142C23.8741 7.33655 23.7491 7.03456 23.5265 6.81188L21.1515 4.43695C20.9276 4.22064 20.6276 4.10095 20.3163 4.10366C20.0049 4.10637 19.7071 4.23125 19.4869 4.45142C19.2668 4.67158 19.1419 4.96941 19.1392 5.28076C19.1365 5.59211 19.2562 5.89207 19.4725 6.11603L21.0079 7.65142L19.4725 9.18681C19.2498 9.4095 19.1248 9.71148 19.1248 10.0264C19.1248 10.3412 19.2498 10.6432 19.4725 10.8659ZM20.0322 9.7465L21.8474 7.93127C21.9216 7.85704 21.9633 7.75638 21.9633 7.65142C21.9633 7.54646 21.9216 7.4458 21.8474 7.37157L20.0322 5.55633C19.96 5.48168 19.9202 5.3817 19.9211 5.27791C19.922 5.17413 19.9636 5.07485 20.037 5.00146C20.1104 4.92808 20.2096 4.88645 20.3134 4.88555C20.4172 4.88464 20.5172 4.92454 20.5918 4.99664L22.9668 7.37157C23.041 7.4458 23.0827 7.54646 23.0827 7.65142C23.0827 7.75638 23.041 7.85704 22.9668 7.93127L20.5918 10.3062C20.5164 10.3781 20.4162 10.4182 20.312 10.4182C20.2078 10.4182 20.1076 10.3781 20.0322 10.3062C19.9579 10.232 19.9163 10.1313 19.9163 10.0264C19.9163 9.92139 19.9579 9.82073 20.0322 9.7465ZM3.48363 21.3255L3.30116 22.678C3.28106 22.8273 3.29313 22.9792 3.33655 23.1234C3.37997 23.2677 3.45373 23.401 3.5529 23.5144C3.65361 23.6294 3.77777 23.7216 3.91704 23.7847C4.05632 23.8477 4.20748 23.8803 4.36038 23.8801H19.6391C19.7919 23.8802 19.943 23.8477 20.0822 23.7846C20.2214 23.7215 20.3455 23.6294 20.4462 23.5144C20.5453 23.401 20.6191 23.2678 20.6625 23.1236C20.7059 22.9794 20.718 22.8276 20.6979 22.6784L20.5154 21.3255C20.383 20.3882 19.9918 19.5065 19.3859 18.7793C18.7799 18.0521 17.9832 17.5083 17.0853 17.2089L13.9432 16.0167C13.8282 15.974 13.7053 15.9566 13.583 15.9658C13.4606 15.9749 13.3417 16.0104 13.2343 16.0698C12.857 16.2774 12.43 16.3776 11.9997 16.3595C11.5696 16.3777 11.1427 16.2775 10.7656 16.0698C10.657 16.0102 10.5368 15.9748 10.4133 15.966C10.2898 15.9572 10.1658 15.9751 10.0499 16.0187L6.93005 17.2014C6.02851 17.4997 5.22819 18.0438 4.61926 18.7724C4.01034 19.5011 3.61702 20.3853 3.48363 21.3255ZM13.1872 16.96V17.1511C13.1872 17.4661 13.0621 17.7681 12.8394 17.9908C12.6167 18.2135 12.3147 18.3386 11.9997 18.3386C11.6848 18.3386 11.3828 18.2135 11.1601 17.9908C10.9374 17.7681 10.8123 17.4661 10.8123 17.1511V16.96C11.5834 17.2149 12.4161 17.2149 13.1872 16.96ZM7.19446 17.9495L10.0206 16.8764V17.1511C10.0206 17.676 10.2291 18.1794 10.6003 18.5506C10.9715 18.9217 11.4748 19.1303 11.9997 19.1303C12.5246 19.1303 13.028 18.9217 13.3992 18.5506C13.7703 18.1794 13.9788 17.676 13.9788 17.1511V16.8768L16.8212 17.9535C17.5822 18.2044 18.2578 18.663 18.7719 19.2775C19.2861 19.892 19.6182 20.6379 19.7309 21.4312L19.9134 22.7845C19.9185 22.8219 19.9155 22.8599 19.9046 22.896C19.8938 22.9321 19.8753 22.9655 19.8505 22.9939C19.8241 23.024 19.7916 23.048 19.7551 23.0643C19.7187 23.0806 19.6791 23.0889 19.6391 23.0885H4.36038C4.32047 23.0888 4.28096 23.0806 4.24455 23.0642C4.20814 23.0479 4.17568 23.0239 4.1494 22.9939C4.12453 22.9654 4.10605 22.932 4.09519 22.8958C4.08434 22.8596 4.08136 22.8215 4.08647 22.7841L4.26894 21.4312C4.38278 20.6353 4.71715 19.8873 5.23418 19.2717C5.75122 18.6561 6.43027 18.1975 7.19446 17.9479V17.9495Z" fill="#545454"/>
</g>
<defs>
<clipPath id="clip0_510_845">
<rect width="23.9995" height="24" fill="white"/>
</clipPath>
</defs>
</svg>
