<svg width="24" height="24" viewBox="0 0 24 24" fill="none" xmlns="http://www.w3.org/2000/svg">
<path d="M20.9998 11.0123H5.41379L10.7068 5.71929C10.8023 5.62704 10.8785 5.5167 10.9309 5.39469C10.9833 5.27269 11.0109 5.14147 11.012 5.00869C11.0132 4.87591 10.9879 4.74423 10.9376 4.62133C10.8873 4.49844 10.8131 4.38679 10.7192 4.29289C10.6253 4.199 10.5136 4.12475 10.3907 4.07447C10.2678 4.02419 10.1362 3.99888 10.0034 4.00004C9.87061 4.00119 9.73939 4.02878 9.61738 4.08119C9.49538 4.1336 9.38503 4.20978 9.29279 4.30529L2.29279 11.3053C2.10532 11.4928 2 11.7471 2 12.0123C2 12.2775 2.10532 12.5318 2.29279 12.7193L9.29279 19.7193C9.48139 19.9014 9.73399 20.0022 9.99619 20C10.2584 19.9977 10.5092 19.8925 10.6946 19.7071C10.88 19.5217 10.9852 19.2709 10.9875 19.0087C10.9897 18.7465 10.8889 18.4939 10.7068 18.3053L5.41379 13.0123H20.9998C21.265 13.0123 21.5194 12.9069 21.7069 12.7194C21.8944 12.5319 21.9998 12.2775 21.9998 12.0123C21.9998 11.7471 21.8944 11.4927 21.7069 11.3052C21.5194 11.1176 21.265 11.0123 20.9998 11.0123Z" fill="#002617"/>
</svg>
