<svg width="24" height="24" viewBox="0 0 24 24" fill="none" xmlns="http://www.w3.org/2000/svg">
<rect x="0.833333" y="0.833333" width="22.3333" height="22.3333" rx="11.1667" fill="#005B36"/>
<rect x="0.833333" y="0.833333" width="22.3333" height="22.3333" rx="11.1667" stroke="white" stroke-width="1.66667"/>
<path d="M16.716 8.76629H15.4225L14.7084 7.6884C14.4389 7.28418 13.9673 7.04166 13.4823 7.04166H10.5181C10.033 7.04166 9.56142 7.28418 9.29195 7.6884L8.57784 8.76629H7.28436C7.08957 8.76573 6.89659 8.80368 6.71652 8.87797C6.53645 8.95225 6.37284 9.0614 6.2351 9.19914C6.09736 9.33688 5.98821 9.50049 5.91393 9.68056C5.83964 9.86063 5.80169 10.0536 5.80225 10.2484V15.4762C5.80169 15.671 5.83964 15.864 5.91393 16.0441C5.98821 16.2241 6.09736 16.3877 6.2351 16.5255C6.37284 16.6632 6.53645 16.7724 6.71652 16.8467C6.89659 16.9209 7.08957 16.9589 7.28436 16.9583H16.716C16.9108 16.9589 17.1038 16.9209 17.2838 16.8467C17.4639 16.7724 17.6275 16.6632 17.7652 16.5255C17.903 16.3877 18.0121 16.2241 18.0864 16.0441C18.1607 15.864 18.1987 15.671 18.1981 15.4762V10.2484C18.1987 10.0536 18.1607 9.86063 18.0864 9.68056C18.0121 9.50049 17.903 9.33688 17.7652 9.19914C17.6275 9.0614 17.4639 8.95225 17.2838 8.87797C17.1038 8.80368 16.9108 8.76573 16.716 8.76629ZM12.0002 15.7457C10.1543 15.7457 8.65868 14.2501 8.65868 12.4042C8.65868 10.5583 10.1543 9.07619 12.0002 9.07619C13.8461 9.07619 15.3417 10.5718 15.3417 12.4177C15.3417 14.2501 13.8461 15.7457 12.0002 15.7457ZM16.5273 10.8547H15.9345C15.692 10.8413 15.5033 10.6391 15.5168 10.3966C15.5303 10.1676 15.7054 9.9924 15.9345 9.97893H16.4735C16.716 9.96546 16.9181 10.1541 16.9316 10.3966C16.945 10.6391 16.7699 10.8413 16.5273 10.8547Z" fill="white"/>
<path d="M12 10.5585C10.976 10.5585 10.1406 11.3939 10.1406 12.4179C10.1406 13.4419 10.976 14.2638 12 14.2638C13.024 14.2638 13.8594 13.4284 13.8594 12.4044C13.8594 11.3804 13.024 10.5585 12 10.5585Z" fill="white"/>
</svg>
