<svg width="24" height="24" viewBox="0 0 24 24" fill="none" xmlns="http://www.w3.org/2000/svg">
<path d="M21.1095 17.5757C22.139 15.8984 22.6827 13.9683 22.68 12.0002C22.6827 10.0321 22.139 8.10166 21.1095 6.42432L21.1037 6.41497C20.1485 4.85814 18.8101 3.57227 17.2163 2.68023C15.6225 1.78819 13.8265 1.31979 12 1.31979C10.1735 1.31979 8.37758 1.78819 6.78375 2.68023C5.18992 3.57227 3.85148 4.85814 2.89633 6.41497L2.89057 6.42432C1.86359 8.10279 1.32013 10.0323 1.32013 12C1.32013 13.9677 1.86359 15.8972 2.89057 17.5757L2.89657 17.5853C3.85176 19.142 5.1902 20.4278 6.78402 21.3198C8.37783 22.2118 10.1738 22.6802 12.0002 22.6801C13.8266 22.6801 15.6226 22.2117 17.2163 21.3197C18.8101 20.4277 20.1486 19.1418 21.1037 17.585L21.1095 17.5757ZM13.3651 20.8495C13.1616 21.0459 12.9273 21.2077 12.6715 21.3286C12.4617 21.4283 12.2322 21.48 11.9999 21.48C11.7675 21.48 11.5381 21.4283 11.3283 21.3286C10.8417 21.08 10.4251 20.7135 10.1167 20.2625C9.48693 19.3523 9.02022 18.3395 8.73745 17.2694C9.82385 17.2026 10.9114 17.1685 12 17.1672C13.0882 17.1672 14.1758 17.2013 15.2628 17.2694C15.1063 17.8196 14.9107 18.3579 14.6777 18.8803C14.3708 19.615 13.9252 20.2836 13.3651 20.8495ZM2.54089 12.6H6.84865C6.87673 13.802 7.00704 14.9995 7.23817 16.1794C6.06057 16.283 4.88601 16.4254 3.71449 16.6066C3.02839 15.3757 2.62733 14.0065 2.54089 12.6ZM3.71449 7.39369C4.88553 7.57513 6.06049 7.71753 7.23937 7.82089C7.00783 9.00067 6.87728 10.198 6.84913 11.4H2.54089C2.62737 9.99357 3.02843 8.62448 3.71449 7.39369ZM10.6349 3.15049C10.8384 2.95407 11.0727 2.79225 11.3285 2.67145C11.5384 2.57173 11.7678 2.52 12.0001 2.52C12.2325 2.52 12.4619 2.57173 12.6718 2.67145C13.1584 2.91998 13.5749 3.2865 13.8833 3.73753C14.5131 4.6477 14.9798 5.66047 15.2626 6.73057C14.1762 6.79745 13.0887 6.83152 12 6.83281C10.9119 6.83281 9.82425 6.79873 8.73721 6.73057C8.89376 6.18039 9.08929 5.64207 9.32233 5.11969C9.6292 4.38501 10.0749 3.71641 10.6349 3.15049ZM21.4591 11.4H17.1514C17.1233 10.198 16.993 9.00056 16.7619 7.82065C17.9395 7.71697 19.114 7.57457 20.2855 7.39345C20.9716 8.62431 21.3727 9.99349 21.4591 11.4ZM8.44513 16.086C8.21049 14.938 8.07797 13.7714 8.04913 12.6H15.9511C15.9226 13.7715 15.7903 14.9381 15.5559 16.0862C14.3719 16.0085 13.1866 15.9688 12 15.9672C10.8144 15.9672 9.62945 16.0068 8.44513 16.086ZM15.5549 7.91401C15.7895 9.06204 15.9221 10.2286 15.9509 11.4H8.04913C8.0777 10.2285 8.20997 9.06189 8.44441 7.91377C9.62842 7.99153 10.8137 8.03121 12.0003 8.03281C13.1859 8.03281 14.3708 7.99313 15.5551 7.91377L15.5549 7.91401ZM17.1509 12.6H21.4591C21.3727 14.0064 20.9716 15.3755 20.2855 16.6063C19.1143 16.4249 17.9394 16.2825 16.7607 16.1791C16.9922 14.9993 17.1228 13.802 17.1509 12.6ZM19.566 6.28921C18.542 6.43689 17.5151 6.55385 16.4851 6.64009C16.3 5.95081 16.0613 5.27708 15.7711 4.62505C15.5062 4.02506 15.1727 3.4577 14.7775 2.93425C16.6874 3.52 18.3633 4.69421 19.566 6.28921ZM5.29681 5.29657C6.3924 4.19993 7.74026 3.38879 9.22225 2.93425C9.19969 2.96353 9.17665 2.99137 9.15457 3.02089C8.39281 4.11742 7.83793 5.34399 7.51729 6.64009C6.48721 6.55289 5.45953 6.43593 4.43425 6.28921C4.69864 5.93891 4.98685 5.60725 5.29681 5.29657ZM4.43425 17.7108C5.45809 17.5631 6.48505 17.4462 7.51513 17.3599C7.70022 18.0492 7.93895 18.7229 8.22913 19.375C8.49412 19.9749 8.82753 20.5423 9.22273 21.0658C7.31291 20.48 5.63698 19.3058 4.43425 17.7108ZM18.7037 18.7034C17.6081 19.8001 16.2602 20.6112 14.7783 21.0658C14.8008 21.0365 14.8239 21.0086 14.8459 20.9791C15.6077 19.8826 16.1626 18.656 16.4832 17.3599C17.5133 17.4471 18.541 17.5641 19.5663 17.7108C19.3019 18.0611 19.0137 18.3928 18.7037 18.7034Z" fill="#333333"/>
</svg>
