<svg width="24" height="24" viewBox="0 0 24 24" fill="none" xmlns="http://www.w3.org/2000/svg">
<path d="M16.365 22.5H7.635C6.64775 22.5366 5.6859 22.1822 4.95846 21.5138C4.23101 20.8453 3.79674 19.9168 3.75 18.93V14.25C3.75 14.051 3.82902 13.8603 3.96967 13.7196C4.11032 13.579 4.30109 13.5 4.5 13.5C4.69891 13.5 4.88968 13.579 5.03033 13.7196C5.17098 13.8603 5.25 14.051 5.25 14.25V18.93C5.2961 19.519 5.57208 20.0664 6.01833 20.4537C6.46458 20.841 7.04529 21.0372 7.635 21H16.365C16.9547 21.0372 17.5354 20.841 17.9817 20.4537C18.4279 20.0664 18.7039 19.519 18.75 18.93V14.25C18.75 14.051 18.829 13.8603 18.9697 13.7196C19.1103 13.579 19.3011 13.5 19.5 13.5C19.6989 13.5 19.8897 13.579 20.0303 13.7196C20.171 13.8603 20.25 14.051 20.25 14.25V18.93C20.2033 19.9168 19.769 20.8453 19.0415 21.5138C18.3141 22.1822 17.3523 22.5366 16.365 22.5ZM22.2825 12.5325C22.3528 12.4627 22.4086 12.3798 22.4467 12.2884C22.4847 12.197 22.5044 12.099 22.5044 12C22.5044 11.9009 22.4847 11.8029 22.4467 11.7115C22.4086 11.6201 22.3528 11.5372 22.2825 11.4675L12.5325 1.71745C12.4628 1.64716 12.3798 1.59136 12.2884 1.55329C12.197 1.51521 12.099 1.49561 12 1.49561C11.901 1.49561 11.803 1.51521 11.7116 1.55329C11.6202 1.59136 11.5372 1.64716 11.4675 1.71745L1.7175 11.4675C1.57627 11.6087 1.49693 11.8002 1.49693 12C1.49693 12.1997 1.57627 12.3912 1.7175 12.5325C1.85873 12.6737 2.05028 12.753 2.25 12.753C2.44973 12.753 2.64127 12.6737 2.7825 12.5325L12 3.30745L21.2175 12.5325C21.2872 12.6027 21.3702 12.6585 21.4616 12.6966C21.553 12.7347 21.651 12.7543 21.75 12.7543C21.849 12.7543 21.947 12.7347 22.0384 12.6966C22.1298 12.6585 22.2128 12.6027 22.2825 12.5325Z" fill="#545454"/>
</svg>
