<svg width="28" height="28" viewBox="0 0 28 28" fill="none" xmlns="http://www.w3.org/2000/svg">
<path d="M19.0554 2.3335C23.0096 2.3335 25.6658 5.10844 25.6658 9.23682V18.7642C25.6657 22.8924 23.0097 25.6665 19.0544 25.6665H8.94312C4.98911 25.6664 2.33284 22.8924 2.33276 18.7642V9.23682C2.33276 5.10851 4.98905 2.33359 8.94312 2.3335H19.0554ZM20.3425 14.6421C19.0922 13.862 18.1266 14.9575 17.866 15.3081C17.6149 15.6464 17.3982 16.0198 17.1707 16.3931C16.6147 17.314 15.9773 18.3761 14.8748 18.9937C13.2727 19.8805 12.0555 19.063 11.1804 18.4683C10.8523 18.247 10.5331 18.0376 10.2156 17.8979C9.43195 17.5596 8.72678 17.9449 7.68042 19.2739C7.1314 19.9686 6.58628 20.657 6.03491 21.3433C5.70525 21.7538 5.78462 22.3871 6.22925 22.6616C6.93891 23.0984 7.80479 23.3335 8.78296 23.3335H18.615C19.1698 23.3335 19.7265 23.2578 20.2566 23.0845C21.4505 22.6944 22.3982 21.8011 22.8933 20.6216C23.3109 19.6296 23.5142 18.425 23.1238 17.4233C22.9936 17.0912 22.7983 16.7813 22.5251 16.5093C21.8087 15.798 21.1387 15.1332 20.3425 14.6421ZM9.91479 7.00049C8.30638 7.00049 6.99976 8.3095 6.99976 9.91748C7.00008 11.5252 8.30657 12.8335 9.91479 12.8335C11.5216 12.8332 12.8295 11.525 12.8298 9.91748C12.8298 8.3097 11.5218 7.00081 9.91479 7.00049Z" fill="#545454"/>
</svg>
