<svg width="24" height="24" viewBox="0 0 24 24" fill="none" xmlns="http://www.w3.org/2000/svg">
<rect width="24" height="24" rx="12" fill="#E6E6E6"/>
<path d="M15.3333 10.1542H15.1125V8.8625C15.1125 8.03701 14.7846 7.24534 14.2009 6.66163C13.6172 6.07792 12.8255 5.75 12 5.75C11.1745 5.75 10.3828 6.07792 9.79913 6.66163C9.21542 7.24534 8.8875 8.03701 8.8875 8.8625V10.1542H8.66667C8.22464 10.1542 7.80072 10.3298 7.48816 10.6423C7.17559 10.9549 7 11.3788 7 11.8208V16.5833C7 17.0254 7.17559 17.4493 7.48816 17.7618C7.80072 18.0744 8.22464 18.25 8.66667 18.25H15.3333C15.7754 18.25 16.1993 18.0744 16.5118 17.7618C16.8244 17.4493 17 17.0254 17 16.5833V11.8208C17 11.3788 16.8244 10.9549 16.5118 10.6423C16.1993 10.3298 15.7754 10.1542 15.3333 10.1542ZM9.72083 8.8625C9.72083 8.5632 9.77979 8.26682 9.89432 7.9903C10.0089 7.71378 10.1767 7.46253 10.3884 7.25089C10.6 7.03925 10.8513 6.87136 11.1278 6.75682C11.4043 6.64229 11.7007 6.58333 12 6.58333C12.2993 6.58333 12.5957 6.64229 12.8722 6.75682C13.1487 6.87136 13.4 7.03925 13.6116 7.25089C13.8233 7.46253 13.9911 7.71378 14.1057 7.9903C14.2202 8.26682 14.2792 8.5632 14.2792 8.8625V10.1542H9.72083V8.8625ZM16.1667 16.5833C16.1667 16.8043 16.0789 17.0163 15.9226 17.1726C15.7663 17.3289 15.5543 17.4167 15.3333 17.4167H8.66667C8.44565 17.4167 8.23369 17.3289 8.07741 17.1726C7.92113 17.0163 7.83333 16.8043 7.83333 16.5833V11.8208C7.83333 11.5998 7.92113 11.3879 8.07741 11.2316C8.23369 11.0753 8.44565 10.9875 8.66667 10.9875H15.3333C15.5543 10.9875 15.7663 11.0753 15.9226 11.2316C16.0789 11.3879 16.1667 11.5998 16.1667 11.8208V16.5833Z" fill="#333333"/>
<path d="M12.0001 12.8024C11.8384 12.8024 11.6804 12.8507 11.5464 12.9411C11.4124 13.0315 11.3084 13.1599 11.2478 13.3097C11.1872 13.4596 11.1727 13.6242 11.2062 13.7823C11.2397 13.9404 11.3197 14.085 11.4359 14.1974V15.1853C11.4359 15.2958 11.4798 15.4018 11.5579 15.4799C11.6361 15.5581 11.742 15.602 11.8526 15.602H12.1476C12.2581 15.602 12.364 15.5581 12.4422 15.4799C12.5203 15.4018 12.5642 15.2958 12.5642 15.1853V14.1974C12.6804 14.085 12.7604 13.9404 12.7939 13.7823C12.8274 13.6242 12.8129 13.4596 12.7523 13.3097C12.6917 13.1599 12.5877 13.0315 12.4537 12.9411C12.3197 12.8507 12.1617 12.8024 12.0001 12.8024Z" fill="#333333"/>
</svg>
