<svg width="24" height="24" viewBox="0 0 24 24" fill="none" xmlns="http://www.w3.org/2000/svg">
<rect width="24" height="24" rx="12" fill="#E6E6E6"/>
<path d="M11.8689 5.22566C5.29776 5.26028 2.49664 13.6067 7.71927 17.5876C8.91514 18.4884 10.3717 18.9757 11.8689 18.9757C13.3661 18.9757 14.8226 18.4884 16.0185 17.5876C21.2411 13.6081 18.4395 5.25906 11.8689 5.22566ZM16.283 16.7157C15.1889 17.7689 13.7542 18.3962 12.2381 18.4843C10.722 18.5724 9.22434 18.1154 8.01564 17.196C7.81968 17.0467 7.63243 16.8864 7.45482 16.7157V15.7537C7.45435 15.3775 7.57244 15.0108 7.7923 14.7056C8.01217 14.4004 8.32263 14.1722 8.67958 14.0536L10.8885 13.3164C11.5252 13.1052 12.2131 13.1052 12.8498 13.3167L15.0582 14.0536C15.4151 14.1722 15.7256 14.4004 15.9455 14.7056C16.1653 15.0108 16.2834 15.3775 16.283 15.7537V16.7157ZM9.68727 10.4849C9.80169 7.59242 13.9366 7.5934 14.0505 10.4849C14.0505 11.0635 13.8207 11.6184 13.4115 12.0275C13.0024 12.4366 12.4475 12.6665 11.8689 12.6665C11.2903 12.6665 10.7354 12.4366 10.3263 12.0275C9.91712 11.6184 9.68727 11.0635 9.68727 10.4849ZM16.774 16.191V15.7537C16.7746 15.2744 16.6241 14.8072 16.344 14.4183C16.0639 14.0295 15.6684 13.7388 15.2136 13.5875L13.0664 12.871C15.55 11.6004 14.6965 7.84925 11.8689 7.81169C9.04101 7.85024 8.18751 11.5994 10.6714 12.871L8.52415 13.5875C8.06936 13.7387 7.67379 14.0294 7.39363 14.4183C7.11347 14.8071 6.96296 15.2744 6.9635 15.7537V16.1907C3.50188 12.0968 6.49648 5.69342 11.8689 5.71699C17.2413 5.69342 20.2361 12.0968 16.774 16.191Z" fill="#333333"/>
</svg>
