<svg width="32" height="32" viewBox="0 0 32 32" fill="none" xmlns="http://www.w3.org/2000/svg">
<rect width="32" height="32" rx="16" fill="#E6EFEB"/>
<path d="M19.4935 11.2886H12.988C12.8687 11.2886 12.7542 11.336 12.6698 11.4204C12.5854 11.5048 12.538 11.6192 12.538 11.7386C12.538 11.8579 12.5854 11.9724 12.6698 12.0568C12.7542 12.1412 12.8687 12.1886 12.988 12.1886H19.494C19.6134 12.1885 19.7278 12.141 19.8122 12.0566C19.8965 11.9722 19.9438 11.8577 19.9438 11.7383C19.9437 11.619 19.8962 11.5045 19.8118 11.4202C19.7274 11.3359 19.6129 11.2885 19.4935 11.2886ZM19.9435 14.2756C19.9435 14.1562 19.8961 14.0418 19.8117 13.9574C19.7273 13.873 19.6129 13.8256 19.4935 13.8256H12.988C12.8687 13.8256 12.7542 13.873 12.6698 13.9574C12.5854 14.0418 12.538 14.1562 12.538 14.2756C12.538 14.3949 12.5854 14.5094 12.6698 14.5938C12.7542 14.6782 12.8687 14.7256 12.988 14.7256H19.494C19.6133 14.7254 19.7276 14.678 19.8119 14.5936C19.8962 14.5092 19.9435 14.3948 19.9435 14.2756ZM12.988 16.3631C12.8687 16.3631 12.7542 16.4105 12.6698 16.4949C12.5854 16.5793 12.538 16.6937 12.538 16.8131C12.538 16.9324 12.5854 17.0469 12.6698 17.1313C12.7542 17.2157 12.8687 17.2631 12.988 17.2631H16.265C16.3844 17.2631 16.4988 17.2157 16.5832 17.1313C16.6676 17.0469 16.715 16.9324 16.715 16.8131C16.715 16.6937 16.6676 16.5793 16.5832 16.4949C16.4988 16.4105 16.3844 16.3631 16.265 16.3631H12.988Z" fill="#545454"/>
<path d="M14.1565 22.55H11.372C11.1875 22.5498 11.0106 22.4764 10.8801 22.3459C10.7497 22.2154 10.6763 22.0386 10.676 21.854V10.146C10.676 9.76205 10.9885 9.45005 11.372 9.45005H21.11C21.4935 9.45005 21.806 9.76255 21.806 10.146V14.4185C21.806 14.5379 21.8534 14.6524 21.9378 14.7367C22.0222 14.8211 22.1367 14.8685 22.256 14.8685C22.3753 14.8685 22.4898 14.8211 22.5742 14.7367C22.6586 14.6524 22.706 14.5379 22.706 14.4185V10.146C22.7056 9.72297 22.5374 9.31733 22.2383 9.01812C21.9392 8.71891 21.5336 8.55058 21.1105 8.55005H11.372C10.9489 8.55058 10.5432 8.7189 10.244 9.01809C9.94485 9.31728 9.77653 9.72293 9.776 10.146V21.854C9.77653 22.2772 9.94485 22.6828 10.244 22.982C10.5432 23.2812 10.9489 23.4495 11.372 23.45H14.1565C14.2758 23.45 14.3903 23.4026 14.4747 23.3182C14.5591 23.2339 14.6065 23.1194 14.6065 23C14.6065 22.8807 14.5591 22.7662 14.4747 22.6819C14.3903 22.5975 14.2758 22.55 14.1565 22.55Z" fill="#545454"/>
<path d="M22.7335 16.4571C22.4192 16.1433 21.9932 15.967 21.549 15.967C21.1049 15.967 20.6789 16.1433 20.3645 16.4571L16.227 20.5946C16.0964 20.7247 16.0097 20.8924 15.979 21.0741L15.753 22.4156C15.7296 22.555 15.7398 22.6981 15.7828 22.8328C15.8258 22.9674 15.9004 23.0899 16.0004 23.1899C16.1003 23.2899 16.2227 23.3646 16.3574 23.4077C16.4921 23.4507 16.6351 23.461 16.7745 23.4376L18.115 23.2111C18.298 23.1806 18.4645 23.0951 18.5955 22.9636L22.733 18.8261C23.0468 18.5118 23.223 18.0858 23.2231 17.6417C23.2232 17.1976 23.0472 16.7716 22.7335 16.4571ZM17.9665 22.3236L16.6405 22.5651L16.863 21.2306L19.8405 18.2531L20.9375 19.3501L17.9665 22.3236ZM22.097 18.1896L21.5735 18.7136L20.4765 17.6166L21.0005 17.0926C21.1515 16.9416 21.3505 16.8661 21.549 16.8661C21.7024 16.866 21.8524 16.9114 21.9799 16.9966C22.1075 17.0818 22.2069 17.2029 22.2656 17.3446C22.3242 17.4863 22.3395 17.6423 22.3095 17.7927C22.2795 17.9431 22.2056 18.0813 22.097 18.1896Z" fill="#545454"/>
</svg>
