<svg width="60" height="60" viewBox="0 0 60 60" fill="none" xmlns="http://www.w3.org/2000/svg">
<g clip-path="url(#clip0_243_2203)">
<path d="M30.0001 34.2305C33.8673 34.2305 37.4415 33.1407 40.3009 31.2891C42.5158 29.8712 45.3986 30.1055 47.3439 31.8751C52.7462 36.7735 55.8165 43.7227 55.8048 51.0235V54.1524C55.8048 57.3868 53.1798 60.0001 49.9454 60.0001H10.0548C6.82045 60.0001 4.19545 57.3868 4.19545 54.1524V51.0235C4.17201 43.7345 7.24232 36.7735 12.6447 31.8868C14.59 30.1173 17.4845 29.8829 19.6876 31.3009C22.5587 33.1407 26.1212 34.2305 30.0001 34.2305Z" fill="url(#paint0_linear_243_2203)" fill-opacity="0.8"/>
<path d="M30 29.0156C38.0124 29.0156 44.5078 22.5203 44.5078 14.5078C44.5078 6.49537 38.0124 0 30 0C21.9876 0 15.4922 6.49537 15.4922 14.5078C15.4922 22.5203 21.9876 29.0156 30 29.0156Z" fill="url(#paint1_linear_243_2203)" fill-opacity="0.8"/>
</g>
<defs>
<linearGradient id="paint0_linear_243_2203" x1="4.19531" y1="45.1836" x2="55.8049" y2="45.1836" gradientUnits="userSpaceOnUse">
<stop offset="0.149038" stop-color="#024832"/>
<stop offset="1" stop-color="#094F1A"/>
</linearGradient>
<linearGradient id="paint1_linear_243_2203" x1="15.4922" y1="14.5078" x2="44.5078" y2="14.5078" gradientUnits="userSpaceOnUse">
<stop offset="0.149038" stop-color="#024832"/>
<stop offset="1" stop-color="#094F1A"/>
</linearGradient>
<clipPath id="clip0_243_2203">
<rect width="60" height="60" fill="white"/>
</clipPath>
</defs>
</svg>
