<svg width="24" height="24" viewBox="0 0 24 24" fill="none" xmlns="http://www.w3.org/2000/svg">
<rect width="24" height="24" rx="12" fill="#E6E6E6"/>
<path d="M14.8281 3.50003H9.17176C8.17353 3.50115 7.36466 4.31005 7.36365 5.30828V18.6919C7.36463 19.6901 8.17356 20.499 9.17176 20.5H14.8281C15.8263 20.499 16.6352 19.6901 16.6364 18.6919V5.30828C16.6353 4.31005 15.8263 3.50119 14.8281 3.50003ZM15.8635 18.6919C15.863 19.2635 15.3997 19.7267 14.8281 19.7273H9.17176C8.60014 19.7267 8.13691 19.2635 8.13633 18.6919V5.30828C8.13691 4.73653 8.60014 4.27329 9.17176 4.27271H14.8281C15.3997 4.27329 15.863 4.73653 15.8635 5.30828V18.6919Z" fill="#333333"/>
<path d="M13.1591 5.04536H10.8409C10.6275 5.04536 10.4545 5.21825 10.4545 5.43163C10.4545 5.64501 10.6275 5.81804 10.8409 5.81804H13.1591C13.3724 5.81804 13.5453 5.64501 13.5453 5.43163C13.5453 5.21825 13.3724 5.04536 13.1591 5.04536ZM12.7726 18.1816C12.7726 18.6085 12.4267 18.9545 12 18.9545C11.5731 18.9545 11.2271 18.6085 11.2271 18.1816C11.2271 17.7549 11.5731 17.4089 12 17.4089C12.4267 17.4089 12.7726 17.7549 12.7726 18.1816Z" fill="#333333"/>
</svg>
