<svg width="24" height="24" viewBox="0 0 24 24" fill="none" xmlns="http://www.w3.org/2000/svg">
<path d="M3.06341 21.8497H21.3118C21.733 21.8497 22.0776 21.52 22.0968 21.1038C22.2966 17.4817 19.4562 13.5933 16.0173 12.7799C15.8783 12.7602 15.7382 12.7494 15.5978 12.7475C15.5509 12.7462 15.5042 12.7545 15.4607 12.772C15.4172 12.7895 15.3777 12.8157 15.3447 12.849C14.3124 13.9229 13.187 14.514 12.1772 14.514C11.1599 14.514 10.0286 13.9146 8.98969 12.8265C8.92476 12.7583 8.84235 12.71 8.73912 12.7242C8.56763 12.7283 8.43944 12.7375 8.40114 12.7441C5.01553 13.4068 1.92461 17.6432 2.27757 21.1379C2.29643 21.3331 2.38743 21.5142 2.53277 21.6459C2.67811 21.7775 2.86732 21.8502 3.06341 21.8497ZM8.51769 13.4009C8.54949 13.3974 8.58143 13.3952 8.61342 13.3943C9.75222 14.5481 11.0134 15.1808 12.178 15.1808C13.3351 15.1808 14.588 14.5564 15.7193 13.4193C15.7926 13.4226 15.8442 13.4259 15.8658 13.4293C19.0142 14.1735 21.6156 17.7423 21.4325 21.0705C21.4308 21.1013 21.4173 21.1302 21.3948 21.1513C21.3723 21.1724 21.3426 21.184 21.3118 21.1837H3.06341C3.03291 21.184 3.00343 21.1728 2.98088 21.1522C2.95833 21.1317 2.9444 21.1034 2.94187 21.073C2.61805 17.8763 5.43925 14.0037 8.51769 13.4009Z" fill="#545454"/>
<path d="M7.20493 6.9746C7.20493 9.87492 9.61656 13.6177 12.1797 13.6177C14.7428 13.6177 17.1545 9.87492 17.1545 6.9746C17.1545 4.23161 14.9227 1.99976 12.1797 1.99976C9.43675 1.99976 7.20493 4.23161 7.20493 6.9746ZM16.4868 6.9746C16.4868 9.76753 14.1918 12.9517 12.1789 12.9517C10.166 12.9517 7.87089 9.76837 7.87089 6.9746C7.87173 4.59956 9.80386 2.66656 12.1789 2.66656C14.5539 2.66656 16.4868 4.59956 16.4868 6.9746Z" fill="#545454"/>
</svg>
