<svg width="32" height="32" viewBox="0 0 32 32" fill="none" xmlns="http://www.w3.org/2000/svg">
<path d="M7.91023 27.3333C7.62029 27.3321 7.33427 27.2661 7.07316 27.1401C6.7531 26.9897 6.48232 26.7515 6.29234 26.4532C6.10235 26.1549 6.00098 25.8089 6 25.4552V7.21141C6.0014 6.96246 6.052 6.71625 6.14889 6.48692C6.24578 6.2576 6.38705 6.04969 6.56458 5.87516C6.7421 5.70062 6.95238 5.56291 7.18332 5.46993C7.41426 5.37695 7.6613 5.33054 7.91023 5.33337H22.9345C23.4318 5.33619 23.9078 5.53496 24.2594 5.88655C24.611 6.23814 24.8098 6.71419 24.8126 7.21141V25.4552C24.8056 25.7951 24.7065 26.1267 24.5259 26.4146C24.3453 26.7026 24.0899 26.9361 23.787 27.0903C23.484 27.2446 23.1449 27.3137 22.8058 27.2903C22.4667 27.2669 22.1403 27.152 21.8614 26.9576L15.637 22.2894C15.5913 22.2528 15.5346 22.2329 15.476 22.2329C15.4175 22.2329 15.3608 22.2528 15.3151 22.2894L9.03706 26.9576C8.71126 27.2001 8.31634 27.3317 7.91023 27.3333ZM7.91023 6.94312C7.83908 6.94312 7.77084 6.97139 7.72052 7.0217C7.67021 7.07202 7.64194 7.14026 7.64194 7.21141V25.4552C7.64156 25.5049 7.65555 25.5536 7.6822 25.5954C7.70886 25.6373 7.74705 25.6706 7.79218 25.6913C7.83327 25.7195 7.8819 25.7345 7.9317 25.7345C7.98149 25.7345 8.03013 25.7195 8.07121 25.6913L14.3492 21.0016C14.6757 20.761 15.0705 20.6313 15.476 20.6313C15.8816 20.6313 16.2764 20.761 16.6029 21.0016L22.8272 25.6698C22.8683 25.698 22.9169 25.7131 22.9667 25.7131C23.0165 25.7131 23.0652 25.698 23.1062 25.6698C23.1514 25.6492 23.1896 25.6159 23.2162 25.574C23.2429 25.5321 23.2569 25.4834 23.2565 25.4337V7.21141C23.2573 7.17117 23.2491 7.13127 23.2324 7.09465C23.2157 7.05803 23.1909 7.02564 23.16 6.99987C23.1291 6.97411 23.0928 6.95563 23.0537 6.9458C23.0147 6.93598 22.974 6.93506 22.9345 6.94312H7.91023Z" fill="#002617"/>
</svg>
