<svg width="24" height="24" viewBox="0 0 24 24" fill="none" xmlns="http://www.w3.org/2000/svg">
<path d="M12 12.6279C9.346 12.6279 7.186 10.4679 7.186 7.81395C7.186 5.16 9.346 3 12 3C14.6539 3 16.8139 5.16 16.8139 7.81395C16.8139 10.4679 14.6539 12.6279 12 12.6279ZM12 4.25581C10.0409 4.25581 8.44182 5.85488 8.44182 7.81395C8.44182 9.77302 10.0409 11.3721 12 11.3721C13.959 11.3721 15.5581 9.77302 15.5581 7.81395C15.5581 5.85488 13.959 4.25581 12 4.25581ZM19.1916 21C18.8483 21 18.5637 20.7153 18.5637 20.3721C18.5637 17.4837 15.6167 15.1395 12 15.1395C8.38321 15.1395 5.43623 17.4837 5.43623 20.3721C5.43623 20.7153 5.15158 21 4.80833 21C4.46507 21 4.18042 20.7153 4.18042 20.3721C4.18042 16.7972 7.68833 13.8837 12 13.8837C16.3116 13.8837 19.8195 16.7972 19.8195 20.3721C19.8195 20.7153 19.5348 21 19.1916 21Z" fill="#545454"/>
</svg>
