<svg width="24" height="24" viewBox="0 0 24 24" fill="none" xmlns="http://www.w3.org/2000/svg">
<g clip-path="url(#clip0_83_127)">
<path d="M19.125 23.8125H4.875V12.9375C4.875 12.3188 5.38125 11.8125 6 11.8125H18C18.6187 11.8125 19.125 12.3188 19.125 12.9375V23.8125Z" fill="white"/>
<path d="M21.825 14.625H21.1875C20.8687 14.625 20.625 14.3813 20.625 14.0625C20.625 13.7437 20.8687 13.5 21.1875 13.5H21.825C22.275 13.5 22.5 13.2 22.5562 12.9188C22.6125 12.6375 22.5562 12.2625 22.1437 12.075L11.7562 7.06875C11.475 6.9375 11.3625 6.6 11.4937 6.3375L12.8062 3.43125C13.0125 2.9625 12.975 2.4375 12.6937 2.00625C12.4125 1.55625 11.9437 1.3125 11.4375 1.3125C10.6125 1.3125 9.93749 1.9875 9.93749 2.8125V3.5625C9.93749 3.88125 9.69374 4.125 9.37499 4.125C9.05624 4.125 8.81249 3.88125 8.81249 3.5625V2.8125C8.81249 1.36875 9.99374 0.1875 11.4375 0.1875C12.3375 0.1875 13.1625 0.6375 13.6312 1.3875C14.1187 2.1375 14.1937 3.075 13.8187 3.88125L12.7312 6.28125L22.6312 11.0625C23.4375 11.4563 23.85 12.3 23.6437 13.1625C23.4375 14.0437 22.7062 14.625 21.825 14.625ZM7.12499 14.625H2.17499C1.27499 14.625 0.543743 14.0437 0.356243 13.1625C0.149993 12.3 0.562493 11.4563 1.36874 11.0625L9.13124 7.3125C9.41249 7.18125 9.74999 7.29375 9.88124 7.575C10.0125 7.85625 9.89999 8.19375 9.61874 8.325L1.85624 12.075C1.46249 12.2625 1.38749 12.6375 1.44374 12.9188C1.49999 13.2 1.72499 13.5 2.17499 13.5H7.12499C7.44374 13.5 7.68749 13.7437 7.68749 14.0625C7.68749 14.3813 7.44374 14.625 7.12499 14.625Z" fill="#545454"/>
<path d="M19.125 23.8125C18.8062 23.8125 18.5625 23.5688 18.5625 23.25V12.9375C18.5625 12.6187 18.3188 12.375 18 12.375H6C5.68125 12.375 5.4375 12.1313 5.4375 11.8125C5.4375 11.4937 5.68125 11.25 6 11.25H18C18.9375 11.25 19.6875 12 19.6875 12.9375V23.25C19.6875 23.5688 19.4438 23.8125 19.125 23.8125ZM4.875 21.9375C4.55625 21.9375 4.3125 21.6938 4.3125 21.375V16.5C4.3125 16.1813 4.55625 15.9375 4.875 15.9375C5.19375 15.9375 5.4375 16.1813 5.4375 16.5V21.375C5.4375 21.6938 5.19375 21.9375 4.875 21.9375Z" fill="#545454"/>
<path d="M7.125 23.8125C6.80625 23.8125 6.5625 23.5688 6.5625 23.25V12.9375C6.5625 12.6187 6.31875 12.375 6 12.375C5.68125 12.375 5.4375 12.6187 5.4375 12.9375V14.0625C5.4375 14.3812 5.19375 14.625 4.875 14.625C4.55625 14.625 4.3125 14.3812 4.3125 14.0625V12.9375C4.3125 12 5.0625 11.25 6 11.25C6.9375 11.25 7.6875 12 7.6875 12.9375V23.25C7.6875 23.5688 7.44375 23.8125 7.125 23.8125Z" fill="#545454"/>
<path d="M4.875 23.8125C5.18566 23.8125 5.4375 23.5607 5.4375 23.25C5.4375 22.9393 5.18566 22.6875 4.875 22.6875C4.56434 22.6875 4.3125 22.9393 4.3125 23.25C4.3125 23.5607 4.56434 23.8125 4.875 23.8125Z" fill="#545454"/>
</g>
<defs>
<clipPath id="clip0_83_127">
<rect width="24" height="24" fill="white"/>
</clipPath>
</defs>
</svg>
